<svg width="120" height="120" viewBox="0 0 120 120" fill="none" xmlns="http://www.w3.org/2000/svg">
<rect width="120" height="120" rx="60" fill="#F9F9F9"/>
<path d="M19.9888 49.9463L14 43.8785V29.0678L19.9888 23H25.2692V31.2209H23.3373L22.1138 32.4606V40.4857L23.3373 41.7254H33.2542L39.243 47.7932V49.9463H19.9888ZM19.9888 68.6717L14 62.6039V54.0567H22.1138V59.2111L23.3373 60.4508H29.9057L31.1292 59.2111V52.6866H39.243V62.6039L33.2542 68.6717H19.9888ZM31.1292 37.6149V32.4606L29.9057 31.2209H27.9738V23H33.2542L39.243 29.0678V37.6149H31.1292ZM60.619 68.6717V60.4508H63.0016L64.2252 59.2111V49.9463H60.1682V41.7254H72.339V62.6039L66.3502 68.6717H60.619ZM52.1832 68.6717L46.1945 62.6039V52.6866H54.3083V59.2111L55.5318 60.4508H57.9144V68.6717H52.1832ZM46.1945 49.9463V29.0678L52.1832 23H57.9144V31.2209H55.5318L54.3083 32.4606V49.9463H46.1945ZM64.2252 37.6149V32.4606L63.0016 31.2209H60.619V23H66.3502L72.339 29.0678V37.6149H64.2252ZM93.715 68.6717V60.4508H96.0976L97.3212 59.2111V23H105.435V62.6039L99.4462 68.6717H93.715ZM85.2792 68.6717L79.2905 62.6039V23H87.4043V59.2111L88.6278 60.4508H91.0104V68.6717H85.2792Z" fill="url(#paint0_radial_28_27)"/>
<path d="M16.2904 91.434L14 89.1134V76.2875L16.2904 73.9669H18.4823V77.111H17.5711L17.1031 77.5851V87.8158L17.5711 88.2899H18.4823V91.434H16.2904ZM19.5167 91.434V88.2899H20.4279L20.8958 87.8158V85.8445H23.9989V89.1134L21.7085 91.434H19.5167ZM20.8958 79.5564V77.5851L20.4279 77.111H19.5167V73.9669H21.7085L23.9989 76.2875V79.5564H20.8958ZM32.2727 91.434V88.2899H33.2578L33.7258 87.8158V77.5851L33.2578 77.111H32.2727V73.9669H34.5385L36.8289 76.2875V89.1134L34.5385 91.434H32.2727ZM28.9479 91.434L26.6575 89.1134V76.2875L28.9479 73.9669H31.2137V77.111H30.2286L29.7607 77.5851V87.8158L30.2286 88.2899H31.2137V91.434H28.9479ZM41.7779 84.2725L39.4875 81.9519V76.2875L41.7779 73.9669H43.7974V77.111H43.0585L42.5906 77.5851V80.6543L43.0585 81.1284H46.8512L49.1416 83.4491V84.2725H41.7779ZM41.7779 91.434L39.4875 89.1134V85.8445H42.5906V87.8158L43.0585 88.2899H45.5706L46.0385 87.8158V85.3205H49.1416V89.1134L46.8512 91.434H41.7779ZM46.0385 79.5564V77.5851L45.5706 77.111H44.8317V73.9669H46.8512L49.1416 76.2875V79.5564H46.0385ZM56.4795 86.0192L51.8002 73.9669H55.125L57.7109 80.5795L60.2722 73.9669H63.597L58.9177 86.0192H56.4795ZM51.8495 91.434V76.9363L54.9526 84.9462V91.434H51.8495ZM60.4693 91.434V84.9462L63.5724 76.9363V91.434H60.4693ZM66.2556 84.2725V73.9669H69.3587V84.2725H66.2556ZM66.2556 91.434V85.3205H69.3587V91.434H66.2556ZM70.3931 91.434V88.2899H74.703V91.434H70.3931ZM70.3931 84.2725V81.1284H73.3238V84.2725H70.3931ZM70.3931 77.111V73.9669H74.703V77.111H70.3931ZM80.6371 91.434V78.159H83.7402V91.434H80.6371ZM77.3616 77.111V73.9669H87.0157V77.111H77.3616ZM89.6743 82.1765V73.9669H92.7774V82.1765H89.6743ZM89.6743 91.434V83.2245H92.7774V91.434H89.6743ZM97.7264 91.434L95.436 89.1134V76.2875L97.7264 73.9669H99.9183V77.111H99.0071L98.5391 77.5851V87.8158L99.0071 88.2899H99.9183V91.434H97.7264ZM100.953 91.434V88.2899H101.864L102.332 87.8158V85.8445H105.435V89.1134L103.145 91.434H100.953ZM102.332 79.5564V77.5851L101.864 77.111H100.953V73.9669H103.145L105.435 76.2875V79.5564H102.332Z" fill="url(#paint1_radial_28_27)"/>
<defs>
<radialGradient id="paint0_radial_28_27" cx="0" cy="0" r="1" gradientUnits="userSpaceOnUse" gradientTransform="translate(59.7175 45.8358) scale(45.7175 22.8358)">
<stop stop-color="#F5EC9B"/>
<stop offset="1" stop-color="#905E26"/>
</radialGradient>
<radialGradient id="paint1_radial_28_27" cx="0" cy="0" r="1" gradientUnits="userSpaceOnUse" gradientTransform="translate(59.7175 82.7005) scale(45.7175 8.73355)">
<stop stop-color="#F5EC9B"/>
<stop offset="1" stop-color="#905E26"/>
</radialGradient>
</defs>
</svg>
