<svg width="365" height="240" viewBox="0 0 365 240" fill="none" xmlns="http://www.w3.org/2000/svg">
<path d="M216.866 99.047C217.004 99.2653 216.957 99.3373 216.724 99.2628C215.016 98.7117 213.507 98.1453 211.842 99.124C207.681 101.562 203.539 103.982 199.416 106.384C199.225 106.495 199.082 106.683 199.018 106.907C198.954 107.131 198.974 107.374 199.074 107.582C199.212 107.872 199.463 108.173 199.828 108.484C202.387 110.657 204.981 113.046 207.938 114.283C209.746 115.038 211.586 115.734 213.457 116.371C213.486 116.381 213.511 116.399 213.529 116.424C213.548 116.448 213.56 116.478 213.563 116.51C213.567 116.542 213.562 116.574 213.549 116.603C213.535 116.631 213.515 116.655 213.489 116.672C212.386 117.401 211.759 118.435 211.607 119.774C211.552 120.236 211.702 120.954 212.055 121.927C213.166 125.006 213.507 128.732 211.906 131.549C211.842 131.665 211.872 131.716 211.995 131.703C216.237 131.268 214.408 123.958 213.504 121.353C212.906 119.627 213.522 118.344 214.938 117.504C215.639 117.088 216.642 116.938 217.308 116.283C219.937 113.678 219.133 110.345 216.55 108.21C216.498 108.166 216.493 108.117 216.536 108.064C217.041 107.432 217.987 106.339 219.375 104.784C220.727 103.274 220.443 101.085 219.493 99.4246C219.457 99.3629 218.974 98.7875 218.044 97.6983C217.169 96.6734 216.619 95.4314 216.393 93.9723C216.379 93.8872 216.39 93.7994 216.424 93.7203C216.457 93.6412 216.512 93.5746 216.582 93.5291C218.913 92.0187 224.542 87.3293 222.599 83.7766C222.374 83.363 221.812 82.7863 220.913 82.0465C218.291 79.8938 216.05 77.3366 214.191 74.3747C214.107 74.2411 214.136 74.15 214.276 74.1011C216.126 73.4538 217.633 72.2901 218.795 70.6101C218.805 70.5973 218.808 70.569 218.806 70.5253L218.799 70.3018C218.799 70.2953 218.798 70.2886 218.795 70.2824C218.792 70.2763 218.789 70.2711 218.784 70.2674C218.779 70.2637 218.774 70.2617 218.769 70.2617C218.764 70.2616 218.76 70.2635 218.756 70.2672C217.463 71.8213 215.858 72.5945 213.941 72.5868C213.526 72.5842 213.491 72.4597 213.835 72.213L214.319 71.8701C214.354 71.8444 214.355 71.8175 214.322 71.7892L214.24 71.716C214.238 71.7134 214.208 71.725 214.151 71.7507L213.13 72.1745C213.091 72.1902 213.045 72.1833 212.999 72.1549C212.953 72.1266 212.911 72.0788 212.881 72.0204C211.972 70.325 211.613 68.5795 211.803 66.7838C212.166 63.3737 213.009 61.1003 214.226 56.8117C214.739 55.0058 214.855 52.7876 214.575 50.1571C213.685 41.7725 209.878 32.8523 204.992 26.1207C200.273 19.6241 194.332 14.918 187.167 12.0024C187.162 12.0005 187.157 11.9997 187.152 12.0001C187.146 12.0005 187.141 12.002 187.137 12.0046C187.133 12.0072 187.129 12.0107 187.126 12.015C187.123 12.0193 187.122 12.0242 187.121 12.0294L187.103 12.1257C187.094 12.1797 187.11 12.2195 187.153 12.2452C196.836 18.3718 204.266 26.3596 209.159 37.3066C211.465 42.4584 213.543 48.8779 212.934 54.5537C212.83 55.5247 212.431 57.1649 211.739 59.4743C210.543 63.4624 209.511 67.1961 210.646 70.8452C210.964 71.8701 211.624 73.2162 212.625 74.8834C214.637 78.2408 217.221 81.1898 220.379 83.7304C221.717 84.8093 220.895 86.944 220.055 88.1231C218.703 90.0163 216.982 91.5627 214.892 92.7624C214.771 92.8309 214.675 92.9407 214.619 93.0745C214.562 93.2083 214.548 93.3587 214.578 93.5022C214.991 95.4493 215.754 97.2976 216.866 99.047ZM179.435 133.587C184.943 130.778 190.185 126.555 192.021 120.513C193.384 116.024 191.309 111.593 188.591 108.318C186.84 106.211 185.153 104.443 183.53 103.012C179.329 99.3077 176.213 96.4846 174.182 94.5425C159.528 80.5283 148.18 62.2101 147.198 40.4855C146.874 33.3339 148.042 25.4579 151.426 19.4276C151.777 18.8008 151.7 18.7314 151.194 19.2195C147.567 22.7131 145.189 27.1097 144.06 32.4091C143.108 36.8866 142.798 41.3679 143.127 45.8531C143.865 55.9049 146.307 65.3761 150.454 74.2668C154.778 83.5416 161.336 90.9282 169.165 96.7004C173.318 99.7598 177.364 102.442 181.438 105.655C183.009 106.893 184.477 108.264 185.844 109.767C189.149 113.396 190.986 117.284 189.53 122.216C188.491 125.734 185.452 129.16 182.602 131.164C181.086 132.23 180.005 132.989 179.36 133.441C179.345 133.453 179.335 133.471 179.332 133.491C179.328 133.51 179.331 133.531 179.34 133.549C179.349 133.566 179.363 133.58 179.381 133.587C179.398 133.594 179.417 133.594 179.435 133.587Z" fill="#283149"/>
<path d="M207.362 54.5421C207.336 54.1157 207.047 53.259 206.497 51.972C206.447 51.8539 206.364 51.7819 206.248 51.7562C201.821 50.7287 197.738 49.2349 194 47.2749C193.603 47.0669 192.873 46.9089 191.808 46.801C187.193 46.3386 182.64 47.474 178.146 50.2072C175.112 52.0517 172.237 54.397 169.521 57.2432C169.457 57.31 169.414 57.3691 169.393 57.4205C169.382 57.4451 169.392 57.4587 169.421 57.46C169.451 57.4614 169.5 57.4504 169.563 57.4282C169.626 57.4059 169.701 57.3731 169.782 57.3327C169.863 57.2923 169.947 57.2457 170.026 57.197C173.845 54.8414 177.629 52.8634 181.378 51.263C184.118 50.0916 187.922 49.5252 191.028 50.4307C192.701 50.9201 195.177 52.5693 196.373 53.2513C199.248 54.8953 202.493 56.4443 206.106 57.8983C206.219 57.942 206.305 57.9073 206.362 57.7943C207.076 56.3814 207.409 55.2974 207.362 54.5421ZM194.174 72.6793C197.903 73.369 201.736 73.8353 204.849 71.3307C205.305 70.9633 205.278 70.9132 204.768 71.1804C202.407 72.416 199.841 72.5444 197.071 71.5657C196.893 71.5015 196.896 71.4565 197.081 71.4309C197.335 71.3923 197.536 71.3885 197.683 71.4193C199.059 71.7121 200.363 71.6787 201.597 71.3191C201.661 71.3011 201.682 71.2652 201.661 71.2112V71.2074C201.64 71.156 201.609 71.1329 201.569 71.138C200.835 71.251 200.114 71.2009 199.405 70.9877C199.35 70.9723 199.315 70.9466 199.298 70.9107C199.284 70.8773 199.283 70.8426 199.295 70.8066C199.307 70.7707 199.325 70.7501 199.352 70.745L199.675 70.6949C199.839 70.6666 199.855 70.5986 199.722 70.4907L197.921 69.0033C197.879 68.9684 197.849 68.9202 197.834 68.8655C197.82 68.8108 197.821 68.7525 197.839 68.6989C198.579 66.3716 198.917 64.4873 198.035 62.0675C197.852 61.564 197.759 61.582 197.754 62.1214C197.75 62.4258 197.832 62.711 197.697 63.0539C197.481 63.6062 197.318 64.1739 197.209 64.757C196.942 66.1866 196.537 67.3811 195.878 68.5255C195.817 68.6308 195.728 68.6732 195.612 68.6527C188.505 67.3772 181.709 65.7859 175.221 62.8381C174.427 62.4785 174.36 62.598 175.022 63.1965C175.679 63.7899 176.29 64.2882 176.855 64.6915C177.158 64.9073 177.436 65.2323 177.687 65.6664C177.87 65.9798 178.19 66.2894 178.648 66.595C180.352 67.7356 181.661 68.5705 182.577 69.0996C182.712 69.1793 182.704 69.2294 182.552 69.2499C181.518 69.3938 180.45 69.3141 179.349 69.011C179.207 68.9725 179.052 68.9995 178.883 69.0919C178.781 69.151 178.678 69.1574 178.574 69.1112C178.279 68.9828 178.086 68.9018 177.993 68.8685C177.517 68.704 177.475 68.7863 177.869 69.1151C179.442 70.4303 181.238 71.4565 183.256 72.1938C187.444 73.7197 191.458 74.6881 195.298 75.0991C196.459 75.2224 199.099 75.4459 199.985 74.9257C200.108 74.8538 200.1 74.8191 199.96 74.8217C197.64 74.8577 195.348 74.5224 193.085 73.816C193.026 73.798 193.006 73.7621 193.025 73.7081L193.028 73.7043C193.047 73.6452 193.079 73.6208 193.124 73.6311C194.804 73.9701 196.391 74.0986 197.885 74.0164C198.768 73.9676 198.773 73.8738 197.9 73.7351C196.813 73.5655 195.565 73.2406 194.156 72.7602C193.803 72.6395 193.809 72.6125 194.174 72.6793ZM210.127 91.6295C211.472 90.8396 212.223 90.8165 213.457 90.855C213.579 90.8589 213.701 90.8342 213.813 90.7827C213.925 90.7312 214.025 90.6541 214.107 90.5568C214.188 90.4595 214.249 90.3444 214.284 90.2195C214.319 90.0946 214.329 89.963 214.312 89.8339C214.29 89.6695 214.161 89.5218 213.924 89.3908C212.991 88.886 211.347 89.5911 210.49 90.2038C209.555 90.8717 208.643 91.6783 207.753 92.6236C207.378 93.0244 207.427 93.0989 207.899 92.8471C209.111 92.1972 209.854 91.7913 210.127 91.6295Z" fill="#283149"/>
<path d="M10.9632 179.221L5 172.764V157.003L10.9632 150.545H16.2211V159.294H14.2975L13.0792 160.613V169.153L14.2975 170.472H24.1721L30.1353 176.929V179.221H10.9632ZM10.9632 199.148L5 192.69V183.595H13.0792V189.08L14.2975 190.399H20.8378L22.0561 189.08V182.137H30.1353V192.69L24.1721 199.148H10.9632ZM22.0561 166.098V160.613L20.8378 159.294H18.9142V150.545H24.1721L30.1353 157.003V166.098H22.0561ZM51.4202 199.148V190.399H53.7927L55.011 189.08V179.221H50.9714V170.472H63.0902V192.69L57.127 199.148H51.4202ZM43.0204 199.148L37.0572 192.69V182.137H45.1364V189.08L46.3547 190.399H48.7272V199.148H43.0204ZM37.0572 179.221V157.003L43.0204 150.545H48.7272V159.294H46.3547L45.1364 160.613V179.221H37.0572ZM55.011 166.098V160.613L53.7927 159.294H51.4202V150.545H57.127L63.0902 157.003V166.098H55.011ZM84.3751 199.148V190.399H86.7476L87.9659 189.08V150.545H96.0451V192.69L90.0818 199.148H84.3751ZM75.9753 199.148L70.012 192.69V150.545H78.0913V189.08L79.3096 190.399H81.682V199.148H75.9753ZM122.905 199.148L116.942 192.69V157.003L122.905 150.545H128.612V159.294H126.24L125.021 160.613V189.08L126.24 190.399H128.612V199.148H122.905ZM131.305 199.148V190.399H133.678L134.896 189.08V183.595H142.975V192.69L137.012 199.148H131.305ZM134.896 166.098V160.613L133.678 159.294H131.305V150.545H137.012L142.975 157.003V166.098H134.896ZM164.516 199.148V190.399H167.081L168.3 189.08V160.613L167.081 159.294H164.516V150.545H170.416L176.379 157.003V192.69L170.416 199.148H164.516ZM155.86 199.148L149.897 192.69V157.003L155.86 150.545H161.759V159.294H159.194L157.976 160.613V189.08L159.194 190.399H161.759V199.148H155.86ZM189.264 179.221L183.301 172.764V157.003L189.264 150.545H194.522V159.294H192.598L191.38 160.613V169.153L192.598 170.472H202.473L208.436 176.929V179.221H189.264ZM189.264 199.148L183.301 192.69V183.595H191.38V189.08L192.598 190.399H199.138L200.357 189.08V182.137H208.436V192.69L202.473 199.148H189.264ZM200.357 166.098V160.613L199.138 159.294H197.215V150.545H202.473L208.436 157.003V166.098H200.357ZM227.541 184.081L215.358 150.545H224.014L230.747 168.945L237.415 150.545H246.072L233.889 184.081H227.541ZM215.486 199.148V158.808L223.565 181.095V199.148H215.486ZM237.928 199.148V181.095L246.008 158.808V199.148H237.928ZM252.993 179.221V150.545H261.073V179.221H252.993ZM252.993 199.148V182.137H261.073V199.148H252.993ZM263.766 199.148V190.399H274.987V199.148H263.766ZM263.766 179.221V170.472H271.396V179.221H263.766ZM263.766 159.294V150.545H274.987V159.294H263.766ZM290.437 199.148V162.21H298.516V199.148H290.437ZM281.909 159.294V150.545H307.044V159.294H281.909ZM313.966 173.388V150.545H322.045V173.388H313.966ZM313.966 199.148V176.305H322.045V199.148H313.966ZM334.93 199.148L328.967 192.69V157.003L334.93 150.545H340.637V159.294H338.264L337.046 160.613V189.08L338.264 190.399H340.637V199.148H334.93ZM343.33 199.148V190.399H345.702L346.921 189.08V183.595H355V192.69L349.037 199.148H343.33ZM346.921 166.098V160.613L345.702 159.294H343.33V150.545H349.037L355 157.003V166.098H346.921Z" fill="#283149"/>
<path d="M6.91201 216.305C7.92389 216.305 8.72718 216.576 9.3218 217.118C9.91643 217.661 10.2137 218.389 10.2137 219.304C10.2137 220.603 9.57738 221.484 8.30468 221.947V221.981H8.32033C9.04014 222.072 9.61653 222.396 10.0494 222.956C10.4823 223.515 10.6988 224.184 10.6988 224.963C10.6988 225.969 10.3415 226.776 9.62694 227.386C8.91234 227.996 7.99172 228.301 6.86506 228.301H3V216.305H6.91201ZM6.59905 221.287C7.22497 221.287 7.71788 221.131 8.07778 220.821C8.43769 220.51 8.61764 220.067 8.61764 219.49C8.61764 218.948 8.46116 218.519 8.1482 218.203C7.83524 217.886 7.42318 217.728 6.91201 217.728H4.50221V221.287H6.59905ZM6.77117 226.878C7.51184 226.878 8.08561 226.692 8.49246 226.319C8.8993 225.946 9.10273 225.455 9.10273 224.845C9.10273 224.167 8.89669 223.642 8.48463 223.269C8.07257 222.896 7.49098 222.71 6.73988 222.71H4.50221V226.878H6.77117ZM20.7183 216.305V217.83H15.0693V221.405H20.3271V222.93H15.0693V226.776H20.9999V228.301H13.5671V216.305H20.7183ZM28.6721 216.305L33.4135 228.301H31.6609L30.5499 225.336H25.2765L24.1812 228.301H22.4286L27.3108 216.305H28.6721ZM25.8086 223.913H30.0022L27.9367 218.406H27.9054L25.8086 223.913ZM36.8608 216.305V223.71C36.8608 224.692 37.1137 225.5 37.6197 226.133C38.1256 226.765 38.8011 227.081 39.6461 227.081C40.4911 227.081 41.1665 226.765 41.6725 226.133C42.1785 225.5 42.4315 224.692 42.4315 223.71V216.305H43.9337V223.981C43.9337 224.805 43.7537 225.576 43.3938 226.294C43.0339 227.011 42.5228 227.576 41.8603 227.988C41.1978 228.4 40.4598 228.606 39.6461 228.606C38.3943 228.606 37.3667 228.163 36.5634 227.276C35.7602 226.39 35.3586 225.291 35.3586 223.981V216.305H36.8608ZM54.6729 216.305V217.83H51.1052V228.301H49.6029V217.83H46.0352V216.305H54.6729ZM58.4801 216.305V228.301H56.9779V216.305H58.4801ZM69.0002 216.305V217.83H63.5391V221.592H68.6247V223.117H63.5391V228.301H62.0369V216.305H69.0002ZM73.0265 216.305V223.71C73.0265 224.692 73.2795 225.5 73.7854 226.133C74.2914 226.765 74.9668 227.081 75.8118 227.081C76.6568 227.081 77.3323 226.765 77.8382 226.133C78.3442 225.5 78.5972 224.692 78.5972 223.71V216.305H80.0994V223.981C80.0994 224.805 79.9194 225.576 79.5595 226.294C79.1996 227.011 78.6885 227.576 78.026 227.988C77.3636 228.4 76.6255 228.606 75.8118 228.606C74.56 228.606 73.5324 228.163 72.7292 227.276C71.9259 226.39 71.5243 225.291 71.5243 223.981V216.305H73.0265ZM84.955 216.305V226.776H90.0406V228.301H83.4528V216.305H84.955ZM100.518 216C101.958 216 103.022 216.458 103.711 217.373L102.49 218.576C102.302 218.259 102.036 218.005 101.692 217.813C101.348 217.621 100.951 217.525 100.503 217.525C99.8561 217.525 99.3371 217.697 98.9459 218.042C98.5547 218.386 98.3591 218.83 98.3591 219.372C98.3591 220.276 98.9119 220.908 100.018 221.27L101.41 221.761C102.193 222.032 102.79 222.411 103.202 222.896C103.614 223.382 103.82 224.049 103.82 224.896C103.82 226.003 103.458 226.898 102.733 227.581C102.008 228.265 101.087 228.607 99.9708 228.607C98.3747 228.607 97.1959 228.053 96.4343 226.946L97.6705 225.794C97.9105 226.2 98.2391 226.517 98.6564 226.743C99.0737 226.969 99.5274 227.082 100.018 227.082C100.633 227.082 101.155 226.89 101.583 226.505C102.01 226.121 102.224 225.647 102.224 225.082C102.224 224.664 102.094 224.314 101.833 224.032C101.572 223.749 101.103 223.495 100.425 223.269L99.4388 222.913C98.4477 222.552 97.754 222.092 97.3576 221.532C96.9612 220.973 96.763 220.253 96.763 219.372C96.763 218.434 97.1124 217.638 97.8114 216.983C98.5103 216.328 99.4126 216 100.518 216ZM108.253 216.305V221.49H108.378L113.276 216.305H115.373L110.022 221.846L115.733 228.301H113.542L108.378 222.303H108.253V228.301H106.751V216.305H108.253ZM119.102 216.305V228.301H117.6V216.305H119.102ZM124.631 216.305L130.733 226.166H130.765V216.305H132.267V228.301H130.358L124.192 218.44H124.161V228.301H122.659V216.305H124.631ZM143.856 223.489V224.913H140.006V223.489H143.856ZM154.772 216C156.211 216 157.275 216.458 157.964 217.373L156.743 218.576C156.556 218.259 156.29 218.005 155.945 217.813C155.601 217.621 155.205 217.525 154.756 217.525C154.109 217.525 153.59 217.697 153.199 218.042C152.808 218.386 152.612 218.83 152.612 219.372C152.612 220.276 153.165 220.908 154.271 221.27L155.664 221.761C156.446 222.032 157.043 222.411 157.455 222.896C157.867 223.382 158.073 224.049 158.073 224.896C158.073 226.003 157.711 226.898 156.986 227.581C156.261 228.265 155.34 228.607 154.224 228.607C152.628 228.607 151.449 228.053 150.688 226.946L151.924 225.794C152.164 226.2 152.492 226.517 152.91 226.743C153.327 226.969 153.781 227.082 154.271 227.082C154.886 227.082 155.408 226.89 155.836 226.505C156.264 226.121 156.477 225.647 156.477 225.082C156.477 224.664 156.347 224.314 156.086 224.032C155.825 223.749 155.356 223.495 154.678 223.269L153.692 222.913C152.701 222.552 152.007 222.092 151.611 221.532C151.214 220.973 151.016 220.253 151.016 219.372C151.016 218.434 151.366 217.638 152.065 216.983C152.764 216.328 153.666 216 154.772 216ZM162.507 216.305V221.287H168.249V216.305H169.752V228.301H168.249V222.812H162.507V228.301H161.004V216.305H162.507ZM174.811 216.305V228.301H173.308V216.305H174.811ZM180.339 216.305L186.442 226.166H186.473V216.305H187.975V228.301H186.066L179.901 218.44H179.87V228.301H178.367V216.305H180.339ZM198.683 216.305V217.83H193.034V221.405H198.292V222.93H193.034V226.776H198.965V228.301H191.532V216.305H198.683ZM212.948 218.508L210.272 228.301H208.692L205.453 216.305H207.017L209.458 225.895H209.49L212.103 216.305H213.824L216.437 225.895H216.469L218.91 216.305H220.475L217.251 228.301H215.671L212.979 218.508H212.948ZM224.125 216.305V228.301H222.623V216.305H224.125ZM235.068 216.305V217.83H231.5V228.301H229.998V217.83H226.43V216.305H235.068ZM238.875 216.305V221.287H244.618V216.305H246.12V228.301H244.618V222.812H238.875V228.301H237.373V216.305H238.875ZM259.822 216C260.604 216 261.337 216.158 262.02 216.474C262.703 216.791 263.264 217.254 263.702 217.864L262.451 218.897C261.772 217.982 260.881 217.525 259.775 217.525C258.575 217.525 257.587 217.988 256.809 218.914C256.032 219.841 255.644 221.004 255.644 222.405C255.644 223.76 256.027 224.879 256.794 225.76C257.56 226.641 258.554 227.081 259.775 227.081C260.995 227.081 261.96 226.545 262.67 225.472L263.937 226.505C263.499 227.138 262.915 227.646 262.184 228.03C261.454 228.414 260.641 228.606 259.743 228.606C258.679 228.606 257.714 228.327 256.849 227.768C255.983 227.209 255.299 226.44 254.799 225.463C254.298 224.486 254.048 223.461 254.048 222.388C254.048 220.535 254.585 219.008 255.659 217.805C256.734 216.602 258.121 216 259.822 216ZM271.547 216C273.195 216 274.569 216.593 275.67 217.779C276.77 218.965 277.321 220.473 277.321 222.303C277.321 223.467 277.076 224.531 276.585 225.497C276.095 226.463 275.404 227.223 274.512 227.776C273.62 228.33 272.632 228.606 271.547 228.606C270.472 228.606 269.492 228.332 268.605 227.785C267.718 227.237 267.024 226.48 266.524 225.514C266.023 224.548 265.773 223.478 265.773 222.303C265.773 220.518 266.312 219.022 267.392 217.813C268.472 216.604 269.857 216 271.547 216ZM267.369 222.303C267.369 223.659 267.76 224.794 268.542 225.709C269.325 226.624 270.326 227.081 271.547 227.081C272.746 227.081 273.743 226.63 274.535 225.726C275.328 224.822 275.725 223.681 275.725 222.303C275.725 220.936 275.334 219.798 274.551 218.889C273.769 217.98 272.762 217.525 271.531 217.525C270.342 217.525 269.351 217.977 268.558 218.881C267.765 219.784 267.369 220.925 267.369 222.303ZM282.161 216.305L288.263 226.166H288.295V216.305H289.797V228.301H287.888L281.723 218.44H281.691V228.301H280.189V216.305H282.161ZM300.317 216.305V217.83H294.856V221.592H299.942V223.117H294.856V228.301H293.354V216.305H300.317ZM304.547 216.305V228.301H303.045V216.305H304.547ZM311.797 216.305C312.975 216.305 313.998 216.568 314.864 217.093C315.729 217.618 316.392 218.338 316.851 219.253C317.31 220.168 317.539 221.185 317.539 222.303C317.539 223.422 317.284 224.441 316.773 225.362C316.261 226.282 315.547 227.002 314.629 227.522C313.711 228.042 312.688 228.301 311.562 228.301H307.853V216.305H311.797ZM311.327 226.776C312.172 226.776 312.947 226.599 313.651 226.243C314.355 225.887 314.913 225.376 315.325 224.709C315.737 224.043 315.943 223.241 315.943 222.303C315.943 220.948 315.555 219.863 314.777 219.05C314 218.237 312.97 217.83 311.687 217.83H309.355V226.776L311.327 226.776ZM327.559 216.305V217.83H321.91V221.405H327.168V222.93H321.91V226.776H327.84V228.301H320.408V216.305H327.559ZM332.649 216.305L338.752 226.166H338.783V216.305H340.285V228.301H338.376L332.211 218.44H332.18V228.301H330.677V216.305H332.649ZM348.928 216C349.71 216 350.443 216.158 351.126 216.474C351.81 216.791 352.37 217.254 352.808 217.864L351.557 218.897C350.879 217.982 349.987 217.525 348.881 217.525C347.681 217.525 346.693 217.988 345.915 218.914C345.138 219.841 344.75 221.004 344.75 222.405C344.75 223.76 345.133 224.879 345.9 225.76C346.667 226.641 347.66 227.081 348.881 227.081C350.101 227.081 351.066 226.545 351.776 225.472L353.043 226.505C352.605 227.138 352.021 227.646 351.291 228.03C350.56 228.414 349.747 228.606 348.849 228.606C347.785 228.606 346.82 228.327 345.955 227.768C345.089 227.209 344.405 226.44 343.905 225.463C343.404 224.486 343.154 223.461 343.154 222.388C343.154 220.535 343.691 219.008 344.765 217.805C345.84 216.602 347.227 216 348.928 216ZM362.718 216.305V217.83H357.069V221.405H362.327V222.93H357.069V226.776H363V228.301H355.567V216.305H362.718Z" fill="#283149"/>
</svg>
