<svg width="365" height="97" viewBox="0 0 365 97" fill="none" xmlns="http://www.w3.org/2000/svg">
<path d="M63.8307 68.4265C63.9403 68.5907 63.9025 68.6447 63.7174 68.5887C62.357 68.1746 61.1553 67.7488 59.8289 68.4845C56.5148 70.3168 53.2159 72.1356 49.932 73.9409C49.7801 74.0245 49.6664 74.1658 49.6155 74.3343C49.5646 74.5028 49.5806 74.685 49.66 74.8416C49.7695 75.0598 49.9698 75.2857 50.2608 75.5193C52.2985 77.1527 54.3646 78.9484 56.7198 79.8781C58.1596 80.4457 59.6248 80.9689 61.1156 81.4478C61.138 81.455 61.158 81.4687 61.1729 81.4873C61.1879 81.5058 61.1973 81.5284 61.2 81.5523C61.2027 81.5762 61.1986 81.6003 61.1881 81.6219C61.1777 81.6434 61.1613 81.6614 61.1411 81.6737C60.2625 82.222 59.7628 82.9992 59.6418 84.0051C59.5984 84.3527 59.7174 84.8923 59.9989 85.6241C60.8832 87.9381 61.1553 90.7387 59.8799 92.8558C59.8289 92.9427 59.8525 92.9813 59.9508 92.9717C63.3291 92.6444 61.8723 87.1504 61.1524 85.1925C60.6763 83.8951 61.1666 82.9306 62.2946 82.2993C62.8529 81.9865 63.6522 81.8735 64.1822 81.3812C66.2766 79.4234 65.6361 76.9181 63.5785 75.3137C63.5369 75.2808 63.5331 75.2442 63.5671 75.2036C63.9696 74.7286 64.7235 73.9071 65.8288 72.739C66.9058 71.6037 66.679 69.9586 65.9223 68.7104C65.894 68.664 65.5095 68.2315 64.7688 67.4129C64.0716 66.6425 63.6333 65.709 63.4538 64.6123C63.4427 64.5484 63.4512 64.4823 63.478 64.4229C63.5048 64.3635 63.5487 64.3134 63.604 64.2792C65.4604 63.1439 69.944 59.6193 68.3965 56.949C68.217 56.6381 67.7692 56.2047 67.0531 55.6486C64.9653 54.0306 63.1807 52.1085 61.6994 49.8823C61.6333 49.7819 61.656 49.7134 61.7675 49.6767C63.2412 49.1901 64.441 48.3155 65.3668 47.0527C65.3744 47.0431 65.3772 47.0218 65.3753 46.989L65.3697 46.821C65.3698 46.8161 65.3688 46.811 65.3667 46.8064C65.3646 46.8018 65.3615 46.7979 65.3579 46.7951C65.3543 46.7924 65.3503 46.7909 65.3463 46.7908C65.3423 46.7908 65.3386 46.7922 65.3356 46.795C64.3059 47.9631 63.0277 48.5443 61.501 48.5385C61.1704 48.5365 61.142 48.4429 61.416 48.2575L61.8015 47.9998C61.8298 47.9805 61.8307 47.9602 61.8043 47.939L61.7391 47.8839C61.7372 47.882 61.7136 47.8907 61.6683 47.91L60.8549 48.2286C60.824 48.2404 60.7868 48.2352 60.7504 48.2139C60.7139 48.1926 60.6805 48.1566 60.6565 48.1127C59.9328 46.8384 59.6466 45.5264 59.7977 44.1768C60.0868 41.6137 60.7585 39.905 61.7278 36.6815C62.1359 35.3242 62.2285 33.6569 62.0055 31.6798C61.297 25.3777 58.2644 18.6731 54.3731 13.6134C50.6151 8.73046 45.883 5.19326 40.1769 3.00181C40.1729 3.00038 40.1686 2.99979 40.1645 3.00007C40.1603 3.00035 40.1563 3.00151 40.1528 3.00345C40.1492 3.0054 40.1463 3.00808 40.1441 3.0113C40.1419 3.01453 40.1405 3.01821 40.14 3.02209L40.1259 3.09449C40.1183 3.13504 40.1315 3.16497 40.1655 3.18428C47.8773 7.7892 53.795 13.793 57.6919 22.021C59.5285 25.8932 61.1836 30.7183 60.699 34.9843C60.6158 35.7142 60.2984 36.947 59.7467 38.6828C58.7944 41.6803 57.9725 44.4867 58.8766 47.2294C59.1298 47.9998 59.6551 49.0115 60.4524 50.2646C62.0546 52.7881 64.1132 55.0047 66.628 56.9142C67.6937 57.7252 67.039 59.3296 66.3701 60.2159C65.2931 61.6389 63.9224 62.8012 62.2578 63.7029C62.1619 63.7544 62.0855 63.8369 62.0404 63.9375C61.9953 64.0381 61.984 64.1511 62.0084 64.2589C62.3371 65.7225 62.9446 67.1117 63.8307 68.4265ZM34.0183 94.3879C38.4055 92.2766 42.5802 89.1024 44.0427 84.5612C45.1281 81.1871 43.4758 77.8565 41.3105 75.3948C39.9161 73.8115 38.5727 72.4822 37.2804 71.4067C33.9342 68.6225 31.4524 66.5006 29.8351 65.0409C18.164 54.5075 9.12589 40.7391 8.34367 24.4104C8.08576 19.0351 9.01536 13.1153 11.7106 8.58276C11.9903 8.11164 11.9289 8.05951 11.5264 8.42636C8.63748 11.0522 6.74332 14.3568 5.84395 18.34C5.08629 21.7054 4.83877 25.0736 5.1014 28.4448C5.68902 35.9999 7.63419 43.1187 10.9369 49.8012C14.3804 56.7723 19.6038 62.3243 25.8389 66.6628C29.1464 68.9623 32.3688 70.9781 35.6139 73.3935C36.8647 74.3241 38.0343 75.3542 39.1226 76.4837C41.7555 79.2119 43.2179 82.1342 42.0588 85.8413C41.2312 88.4855 38.8108 91.0602 36.5407 92.5662C35.3333 93.3675 34.4727 93.938 33.9587 94.2779C33.9471 94.2872 33.9392 94.3005 33.9362 94.3153C33.9333 94.3301 33.9356 94.3455 33.9428 94.3587C33.9499 94.3719 33.9615 94.3821 33.9753 94.3875C33.9891 94.3928 34.0043 94.393 34.0183 94.3879Z" fill="url(#paint0_radial_22_12)"/>
<path d="M56.2607 34.9756C56.2399 34.6551 56.0103 34.0112 55.572 33.0439C55.5323 32.9551 55.4662 32.901 55.3736 32.8817C51.8479 32.1094 48.5962 30.9866 45.6184 29.5134C45.3029 29.3571 44.721 29.2383 43.8726 29.1572C40.1977 28.8097 36.5709 29.6631 32.9923 31.7174C30.5757 33.1037 28.2857 34.8666 26.1223 37.0059C26.0713 37.0561 26.0373 37.1005 26.0203 37.1391C26.0117 37.1576 26.0195 37.1678 26.0432 37.1688C26.0669 37.1698 26.1056 37.1616 26.1558 37.1449C26.206 37.1282 26.2661 37.1035 26.3306 37.0731C26.395 37.0428 26.4618 37.0077 26.5248 36.9711C29.5668 35.2006 32.5804 33.7139 35.5657 32.511C37.748 31.6306 40.7777 31.2048 43.2519 31.8854C44.584 32.2532 46.5566 33.4928 47.5088 34.0054C49.7988 35.2411 52.3826 36.4054 55.2602 37.4982C55.3509 37.531 55.4189 37.505 55.4643 37.42C56.033 36.3581 56.2985 35.5433 56.2607 34.9756ZM45.7573 48.608C48.7275 49.1264 51.7799 49.4768 54.2598 47.5943C54.6225 47.3182 54.6008 47.2806 54.1946 47.4814C52.3146 48.4101 50.2712 48.5066 48.0643 47.771C47.9226 47.7227 47.9254 47.6889 48.0728 47.6696C48.275 47.6406 48.4346 47.6377 48.5518 47.6609C49.6477 47.881 50.6869 47.8559 51.6694 47.5856C51.7204 47.5721 51.7374 47.5451 51.7204 47.5045V47.5016C51.7034 47.463 51.6788 47.4456 51.6467 47.4495C51.0629 47.5345 50.4885 47.4968 49.9235 47.3365C49.8801 47.325 49.8517 47.3057 49.8385 47.2786C49.8272 47.2535 49.8262 47.2275 49.8357 47.2004C49.8451 47.1734 49.8602 47.1579 49.881 47.1541L50.1389 47.1164C50.2693 47.0952 50.2816 47.044 50.1758 46.9629L48.7417 45.845C48.7086 45.8188 48.6844 45.7825 48.6727 45.7414C48.661 45.7003 48.6623 45.6565 48.6765 45.6162C49.266 43.8669 49.5352 42.4507 48.8324 40.6319C48.6869 40.2535 48.6123 40.267 48.6085 40.6724C48.6056 40.9012 48.6708 41.1155 48.5631 41.3733C48.3912 41.7884 48.2618 42.2151 48.1749 42.6534C47.9623 43.7279 47.6392 44.6257 47.1149 45.4859C47.0658 45.565 46.9949 45.5969 46.9023 45.5815C41.2425 44.6228 35.8293 43.4267 30.6626 41.2111C30.0297 40.9408 29.9768 41.0306 30.5039 41.4805C31.0273 41.9265 31.5138 42.3011 31.9635 42.6042C32.2053 42.7664 32.4264 43.0106 32.6267 43.3369C32.7722 43.5725 33.0272 43.8051 33.3919 44.0349C34.7485 44.8922 35.7915 45.5197 36.5208 45.9174C36.6285 45.9773 36.6219 46.0149 36.501 46.0304C35.6772 46.1385 34.8269 46.0786 33.9502 45.8508C33.8369 45.8218 33.7131 45.8421 33.579 45.9116C33.4977 45.956 33.4155 45.9609 33.3324 45.9261C33.0981 45.8296 32.9441 45.7687 32.8704 45.7436C32.4906 45.6201 32.4576 45.6819 32.7712 45.929C34.0239 46.9176 35.4542 47.6889 37.0621 48.2431C40.397 49.3899 43.5939 50.1178 46.6529 50.4268C47.5768 50.5195 49.6798 50.6874 50.3855 50.2964C50.4837 50.2424 50.4771 50.2163 50.3657 50.2182C48.5178 50.2453 46.6926 49.9933 44.8901 49.4623C44.8428 49.4488 44.8268 49.4218 44.8419 49.3812L44.8447 49.3784C44.8598 49.3339 44.8853 49.3156 44.9212 49.3233C46.259 49.5782 47.523 49.6747 48.7133 49.6129C49.4162 49.5763 49.42 49.5058 48.7247 49.4015C47.8593 49.2741 46.8655 49.0298 45.7432 48.6688C45.4616 48.578 45.4663 48.5578 45.7573 48.608ZM58.4628 62.8514C59.5341 62.2577 60.1321 62.2403 61.1156 62.2693C61.2127 62.2722 61.3093 62.2536 61.3986 62.2149C61.488 62.1762 61.5678 62.1182 61.6327 62.0451C61.6975 61.972 61.7457 61.8854 61.7738 61.7916C61.802 61.6977 61.8095 61.5988 61.7958 61.5018C61.7788 61.3782 61.6758 61.2672 61.4869 61.1687C60.7443 60.7893 59.4349 61.3193 58.7519 61.7798C58.0075 62.2818 57.281 62.8881 56.5724 63.5986C56.2739 63.8998 56.3127 63.9558 56.6886 63.7666C57.6542 63.2781 58.2455 62.973 58.4628 62.8514Z" fill="url(#paint1_radial_22_12)"/>
<path d="M83.0287 47.5506L78.2793 42.6972V30.8509L83.0287 25.9976H87.2163V32.5731H85.6843L84.714 33.5646V39.9835L85.6843 40.9751H93.5489L98.2982 45.8284V47.5506H83.0287ZM83.0287 62.5281L78.2793 57.6747V50.8383H84.714V54.961L85.6843 55.9526H90.8933L91.8636 54.961V49.7424H98.2982V57.6747L93.5489 62.5281H83.0287ZM91.8636 37.6873V33.5646L90.8933 32.5731H89.3612V25.9976H93.5489L98.2982 30.8509V37.6873H91.8636ZM115.251 62.5281V55.9526H117.14L118.11 54.961V47.5506H114.893V40.9751H124.545V57.6747L119.796 62.5281H115.251ZM108.561 62.5281L103.811 57.6747V49.7424H110.246V54.961L111.216 55.9526H113.106V62.5281H108.561ZM103.811 47.5506V30.8509L108.561 25.9976H113.106V32.5731H111.216L110.246 33.5646V47.5506H103.811ZM118.11 37.6873V33.5646L117.14 32.5731H115.251V25.9976H119.796L124.545 30.8509V37.6873H118.11ZM141.497 62.5281V55.9526H143.387L144.357 54.961V25.9976H150.792V57.6747L146.042 62.5281H141.497ZM134.807 62.5281L130.058 57.6747V25.9976H136.493V54.961L137.463 55.9526H139.352V62.5281H134.807ZM172.185 62.5281L167.435 57.6747V30.8509L172.185 25.9976H176.73V32.5731H174.84L173.87 33.5646V54.961L174.84 55.9526H176.73V62.5281H172.185ZM178.875 62.5281V55.9526H180.764L181.734 54.961V50.8383H188.169V57.6747L183.42 62.5281H178.875ZM181.734 37.6873V33.5646L180.764 32.5731H178.875V25.9976H183.42L188.169 30.8509V37.6873H181.734ZM205.326 62.5281V55.9526H207.368L208.339 54.961V33.5646L207.368 32.5731H205.326V25.9976H210.024L214.773 30.8509V57.6747L210.024 62.5281H205.326ZM198.431 62.5281L193.682 57.6747V30.8509L198.431 25.9976H203.13V32.5731H201.087L200.117 33.5646V54.961L201.087 55.9526H203.13V62.5281H198.431ZM225.036 47.5506L220.286 42.6972V30.8509L225.036 25.9976H229.223V32.5731H227.691L226.721 33.5646V39.9835L227.691 40.9751H235.556L240.305 45.8284V47.5506H225.036ZM225.036 62.5281L220.286 57.6747V50.8383H226.721V54.961L227.691 55.9526H232.9L233.87 54.961V49.7424H240.305V57.6747L235.556 62.5281H225.036ZM233.87 37.6873V33.5646L232.9 32.5731H231.368V25.9976H235.556L240.305 30.8509V37.6873H233.87ZM255.521 51.2036L245.818 25.9976H252.712L258.075 39.827L263.386 25.9976H270.28L260.577 51.2036H255.521ZM245.92 62.5281V32.2077L252.355 48.9596V62.5281H245.92ZM263.794 62.5281V48.9596L270.229 32.2077V62.5281H263.794ZM275.793 47.5506V25.9976H282.227V47.5506H275.793ZM275.793 62.5281V49.7424H282.227V62.5281H275.793ZM284.372 62.5281V55.9526H293.309V62.5281H284.372ZM284.372 47.5506V40.9751H290.45V47.5506H284.372ZM284.372 32.5731V25.9976H293.309V32.5731H284.372ZM305.614 62.5281V34.7649H312.049V62.5281H305.614ZM298.822 32.5731V25.9976H318.841V32.5731H298.822ZM324.354 43.1669V25.9976H330.789V43.1669H324.354ZM324.354 62.5281V45.3587H330.789V62.5281H324.354ZM341.051 62.5281L336.302 57.6747V30.8509L341.051 25.9976H345.596V32.5731H343.707L342.736 33.5646V54.961L343.707 55.9526H345.596V62.5281H341.051ZM347.741 62.5281V55.9526H349.631L350.601 54.961V50.8383H357.036V57.6747L352.286 62.5281H347.741ZM350.601 37.6873V33.5646L349.631 32.5731H347.741V25.9976H352.286L357.036 30.8509V37.6873H350.601Z" fill="url(#paint2_radial_22_12)"/>
<path d="M82.8385 79.2475C83.7961 79.5203 84.4366 80.1688 84.4366 81.4172C84.4366 82.896 83.567 83.8718 81.7751 83.8718H78.2793V75.1145H81.0289C82.862 75.1145 83.8256 76.0235 83.8256 77.5145C83.8256 78.2841 83.5024 78.9142 82.8385 79.2475ZM81.0465 76.6231H79.9772V78.6837H81.1229C81.8749 78.6837 82.204 78.2231 82.204 77.6292C82.204 77.0474 81.8338 76.6231 81.0465 76.6231ZM81.446 82.3142C82.3978 82.3142 82.7268 81.7869 82.7268 81.2172C82.7268 80.6354 82.4037 80.0839 81.4107 80.0839H79.9772V82.3142H81.446ZM91.5076 76.7144H88.3584V78.7022H91.1492V80.284H88.3584V82.2658H91.5076V83.8719H86.5841V75.1146H91.5076V76.7144ZM99.5834 83.8718L98.9664 82.0657H95.4002L94.7832 83.8718H92.9795L96.1052 75.1145H98.2614L101.387 83.8718H99.5834ZM95.9169 80.5445H98.4492L97.186 76.8294L95.9169 80.5445ZM106.384 83.993C104.521 83.993 103.064 83.0112 103.064 80.8051V75.1143H104.827V80.5566C104.827 81.8899 105.514 82.3869 106.384 82.3869C107.259 82.3869 107.952 81.8839 107.952 80.5566V75.1143H109.715V80.8051C109.715 83.0112 108.252 83.993 106.384 83.993ZM117.238 75.1145V76.7144H115.223V83.8718H113.478V76.7144H111.451V75.1145H117.238ZM119.151 83.8718V75.1145H120.913V83.8718H119.151ZM128.689 76.7144H125.458V78.7022H128.248V80.284H125.458V83.8719H123.683V75.1146H128.689V76.7144ZM133.915 83.993C132.053 83.993 130.596 83.0112 130.596 80.8051V75.1143H132.358V80.5566C132.358 81.8899 133.046 82.3869 133.915 82.3869C134.791 82.3869 135.484 81.8839 135.484 80.5566V75.1143H137.247V80.8051C137.247 83.0112 135.784 83.993 133.915 83.993ZM141.609 82.2657H144.271V83.8718H139.847V75.1145H141.609V82.2657ZM152.719 83.993C150.898 83.993 149.476 83.0899 149.218 81.4475L151.039 81.0172C151.156 81.999 151.856 82.5081 152.79 82.5081C153.507 82.5081 154.077 82.1808 154.071 81.4414C154.065 80.6172 153.125 80.3566 152.091 80.0293C150.845 79.6293 149.511 79.1565 149.511 77.5445C149.511 75.9141 150.804 74.993 152.508 74.993C154 74.993 155.504 75.6172 155.845 77.296L154.141 77.7323C153.983 76.8596 153.413 76.4778 152.614 76.4778C151.903 76.4778 151.298 76.7808 151.298 77.502C151.298 78.1748 152.132 78.399 153.095 78.6959C154.376 79.0959 155.892 79.605 155.892 81.3504C155.892 83.211 154.382 83.993 152.719 83.993ZM163.122 83.8718L160.484 80.1506H159.861V83.8718H158.098V75.1145H159.861V78.5569H160.46L163.122 75.1145H165.272L161.982 79.3023L165.372 83.872L163.122 83.8718ZM167.214 83.8718V75.1145H168.976V83.8718H167.214ZM177.546 75.1145H179.302V83.8718H177.263L173.503 77.6111V83.8718H171.747V75.1145H173.762L177.546 81.3385V75.1145ZM185.542 81.3748V79.9143H189.754V81.3748H185.542ZM198.814 83.993C196.993 83.993 195.571 83.0899 195.312 81.4475L197.134 81.0172C197.251 81.999 197.95 82.5081 198.885 82.5081C199.601 82.5081 200.171 82.1808 200.165 81.4414C200.159 80.6172 199.219 80.3566 198.185 80.0293C196.94 79.6293 195.606 79.1565 195.606 77.5445C195.606 75.9141 196.899 74.993 198.603 74.993C200.095 74.993 201.599 75.6172 201.94 77.296L200.236 77.7323C200.077 76.8596 199.507 76.4778 198.708 76.4778C197.997 76.4778 197.392 76.7808 197.392 77.502C197.392 78.1748 198.227 78.399 199.19 78.6959C200.471 79.0959 201.987 79.605 201.987 81.3504C201.987 83.211 200.477 83.993 198.814 83.993ZM209.545 75.1145H211.308V83.8718H209.545V80.2718H205.956V83.8718H204.193V75.1145H205.956V78.6902H209.545V75.1145ZM214.084 83.8718V75.1145H215.847V83.8718H214.084ZM224.416 75.1145H226.172V83.8718H224.134L220.373 77.6111V83.8718H218.617V75.1145H220.632L224.416 81.3385V75.1145ZM233.872 76.7144H230.723V78.7022H233.514V80.284H230.723V82.2658H233.872V83.8719H228.949V75.1146H233.872V76.7144ZM241.351 83.8718L239.13 75.1145H240.963L242.62 81.745L244.518 75.1145H246.004L247.89 81.745L249.565 75.1145H251.392L249.171 83.8718H246.903L245.258 78.4597L243.619 83.8718H241.351ZM253.328 83.8718V75.1145H255.091V83.8718H253.328ZM262.784 75.1145V76.7144H260.769V83.8718H259.024V76.7144H256.997V75.1145H262.784ZM270.049 75.1145H271.812V83.8718H270.049V80.2718H266.46V83.8718H264.697V75.1145H266.46V78.6902H270.049V75.1145ZM282.052 83.993C279.555 83.993 277.711 82.2415 277.711 79.49C277.711 76.7385 279.555 74.993 282.052 74.993C283.944 74.993 285.46 75.993 286.065 77.6536L284.42 78.2718C284.044 77.2536 283.145 76.6657 282.052 76.6657C280.589 76.6657 279.467 77.7202 279.467 79.49C279.467 81.2597 280.589 82.3202 282.052 82.3202C283.145 82.3202 284.044 81.7263 284.42 80.7081L286.065 81.3262C285.46 82.9868 283.944 83.993 282.052 83.993ZM291.849 83.993C289.352 83.993 287.508 82.2354 287.508 79.49C287.508 76.7385 289.352 74.993 291.849 74.993C294.341 74.993 296.185 76.7385 296.185 79.49C296.185 82.2354 294.341 83.993 291.849 83.993ZM291.849 82.3263C293.312 82.3263 294.435 81.2657 294.435 79.49C294.435 77.7203 293.312 76.6658 291.849 76.6658C290.386 76.6658 289.264 77.7203 289.264 79.49C289.264 81.2657 290.386 82.3263 291.849 82.3263ZM304.185 75.1145H305.941V83.8718H303.903L300.142 77.6111V83.8718H298.386V75.1145H300.401L304.185 81.3385V75.1145ZM313.723 76.7144H310.491V78.7022H313.282V80.284H310.491V83.8719H308.717V75.1146H313.723V76.7144ZM315.806 83.8718V75.1145H317.569V83.8718H315.806ZM320.339 83.8718V75.1145H323.412C326.12 75.1145 327.46 76.872 327.46 79.4902C327.46 82.1144 326.12 83.872 323.412 83.872L320.339 83.8718ZM322.101 82.2657H323.323C324.886 82.2657 325.603 81.2597 325.603 79.49C325.603 77.7202 324.886 76.7142 323.323 76.7142H322.101V82.2657ZM334.613 76.7144H331.464V78.7022H334.255V80.284H331.464V82.2658H334.613V83.8719H329.689V75.1146H334.613V76.7144ZM342.806 75.1145H344.563V83.8718H342.524L338.764 77.6111V83.8718H337.007V75.1145H339.022L342.806 81.3385V75.1145ZM351.099 83.993C348.602 83.993 346.757 82.2415 346.757 79.49C346.757 76.7385 348.602 74.993 351.099 74.993C352.991 74.993 354.507 75.993 355.112 77.6536L353.467 78.2718C353.091 77.2536 352.192 76.6657 351.099 76.6657C349.636 76.6657 348.514 77.7202 348.514 79.49C348.514 81.2597 349.636 82.3202 351.099 82.3202C352.192 82.3202 353.091 81.7263 353.467 80.7081L355.112 81.3262C354.507 82.9868 352.991 83.993 351.099 83.993ZM362.059 76.7144H358.91V78.7022H361.701V80.284H358.91V82.2658H362.059V83.8719H357.136V75.1146H362.059V76.7144Z" fill="#B89C4F"/>
<defs>
<radialGradient id="paint0_radial_22_12" cx="0" cy="0" r="1" gradientUnits="userSpaceOnUse" gradientTransform="translate(36.8579 48.6958) rotate(180) scale(31.8579 45.6958)">
<stop stop-color="#F5EC9B"/>
<stop offset="1" stop-color="#905E26"/>
</radialGradient>
<radialGradient id="paint1_radial_22_12" cx="0" cy="0" r="1" gradientUnits="userSpaceOnUse" gradientTransform="translate(43.9097 46.4789) rotate(180) scale(17.8928 17.3972)">
<stop stop-color="#F5EC9B"/>
<stop offset="1" stop-color="#905E26"/>
</radialGradient>
<radialGradient id="paint2_radial_22_12" cx="0" cy="0" r="1" gradientUnits="userSpaceOnUse" gradientTransform="translate(217.657 44.2628) scale(139.378 18.2653)">
<stop stop-color="#F5EC9B"/>
<stop offset="1" stop-color="#905E26"/>
</radialGradient>
</defs>
</svg>
