<svg width="120" height="120" viewBox="0 0 120 120" fill="none" xmlns="http://www.w3.org/2000/svg">
<rect width="120" height="120" rx="60" fill="white"/>
<path d="M93.8665 81.5892C94.0041 81.7688 93.9566 81.828 93.7242 81.7667C92.0161 81.3135 90.5073 80.8477 88.8419 81.6526C84.6808 83.6575 80.5387 85.6476 76.4156 87.623C76.2248 87.7145 76.0821 87.8691 76.0182 88.0534C75.9543 88.2378 75.9743 88.4372 76.074 88.6085C76.2116 88.8473 76.4631 89.0944 76.8284 89.3501C79.387 91.1374 81.9811 93.1021 84.9382 94.1194C86.7459 94.7405 88.5857 95.313 90.4575 95.837C90.4856 95.8449 90.5106 95.8599 90.5295 95.8802C90.5483 95.9005 90.5601 95.9252 90.5635 95.9513C90.5669 95.9775 90.5617 96.0039 90.5485 96.0275C90.5354 96.051 90.5149 96.0707 90.4895 96.0841C89.3863 96.6841 88.7589 97.5345 88.607 98.6352C88.5525 99.0155 88.7019 99.6059 89.0554 100.407C90.1657 102.939 90.5073 106.003 88.906 108.32C88.8419 108.415 88.8716 108.457 88.9949 108.446C93.2366 108.088 91.4076 102.077 90.5037 99.9345C89.9059 98.5148 90.5215 97.4595 91.9378 96.7686C92.6388 96.4264 93.6423 96.3028 94.3078 95.7641C96.9375 93.6219 96.1333 90.8807 93.5498 89.1251C93.4976 89.0892 93.4929 89.049 93.5356 89.0046C94.0409 88.4849 94.9874 87.586 96.3752 86.3078C97.7275 85.0656 97.4428 83.2656 96.4927 81.8998C96.4571 81.8491 95.9743 81.3759 95.0444 80.4801C94.169 79.6371 93.6186 78.6157 93.3932 77.4157C93.3794 77.3457 93.39 77.2735 93.4236 77.2085C93.4573 77.1434 93.5124 77.0886 93.5818 77.0513C95.9126 75.809 101.542 71.9524 99.5992 69.0306C99.3739 68.6904 98.8116 68.2161 97.9125 67.6077C95.2911 65.8373 93.0504 63.7341 91.1905 61.2983C91.1075 61.1884 91.1359 61.1134 91.2759 61.0733C93.1263 60.5409 94.6328 59.5838 95.7952 58.2022C95.8047 58.1916 95.8083 58.1684 95.8059 58.1324L95.7988 57.9486C95.7989 57.9433 95.7976 57.9377 95.795 57.9327C95.7924 57.9276 95.7886 57.9233 95.784 57.9203C95.7795 57.9173 95.7744 57.9156 95.7694 57.9156C95.7645 57.9156 95.7598 57.9171 95.7561 57.9201C94.4631 59.1983 92.8583 59.8342 90.9414 59.8278C90.5263 59.8257 90.4907 59.7233 90.8347 59.5205L91.3186 59.2384C91.3542 59.2173 91.3554 59.1951 91.3222 59.1719L91.2403 59.1117C91.238 59.1096 91.2083 59.1191 91.1514 59.1402L90.1301 59.4888C90.0913 59.5017 90.0447 59.496 89.9989 59.4727C89.9531 59.4494 89.9112 59.41 89.881 59.362C88.9724 57.9677 88.613 56.5321 88.8028 55.0554C89.1657 52.2508 90.0091 50.3811 91.2261 46.854C91.7385 45.3689 91.8548 43.5446 91.5748 41.3812C90.6852 34.4855 86.8776 27.1493 81.9918 21.6131C77.2732 16.2702 71.3317 12.3998 64.1673 10.002C64.1623 10.0004 64.1569 9.99977 64.1517 10.0001C64.1465 10.0004 64.1415 10.0016 64.137 10.0038C64.1326 10.0059 64.1288 10.0088 64.1261 10.0124C64.1233 10.0159 64.1216 10.0199 64.121 10.0242L64.1032 10.1034C64.0937 10.1478 64.1103 10.1805 64.153 10.2016C73.8357 15.2403 81.2659 21.8096 86.1588 30.8127C88.4647 35.0496 90.5429 40.3291 89.9344 44.997C89.83 45.7956 89.4314 47.1445 88.7387 49.0438C87.543 52.3237 86.5111 55.3944 87.6462 58.3955C87.9641 59.2384 88.6236 60.3455 89.6248 61.7166C91.6365 64.4778 94.2212 66.9031 97.3787 68.9925C98.7167 69.8799 97.8947 71.6355 97.0549 72.6052C95.7027 74.1622 93.9816 75.434 91.8915 76.4206C91.7712 76.477 91.6752 76.5673 91.6186 76.6774C91.5619 76.7874 91.5478 76.9111 91.5784 77.0291C91.9912 78.6305 92.7539 80.1505 93.8665 81.5892ZM56.4347 109.996C61.9432 107.686 67.1849 104.213 69.0211 99.2436C70.384 95.5518 68.3094 91.9074 65.5907 89.2138C63.8399 87.4814 62.1532 86.0269 60.5305 84.8501C56.3291 81.8037 53.213 79.4819 51.1823 77.8847C36.5284 66.3591 25.1804 51.2938 24.1982 33.4271C23.8744 27.5455 25.0416 21.0681 28.4257 16.1086C28.7768 15.5931 28.6997 15.5361 28.1944 15.9375C24.5671 18.8107 22.1889 22.4265 21.0596 26.7849C20.1083 30.4673 19.7976 34.1528 20.1273 37.8415C20.8651 46.1083 23.3074 53.8976 27.4543 61.2095C31.7778 68.8373 38.3361 74.9122 46.1648 79.6593C50.3176 82.1755 54.3636 84.3811 58.4381 87.024C60.0086 88.0423 61.4771 89.1694 62.8435 90.4053C66.1494 93.3905 67.9855 96.588 66.5301 100.644C65.491 103.538 62.4521 106.355 59.6017 108.003C58.0858 108.879 57.0052 109.504 56.3599 109.876C56.3454 109.886 56.3353 109.9 56.3317 109.917C56.328 109.933 56.3309 109.95 56.3399 109.964C56.3489 109.978 56.3633 109.99 56.3807 109.995C56.3981 110.001 56.4172 110.002 56.4347 109.996Z" fill="url(#paint0_radial_25_7)"/>
<path d="M84.3617 44.9875C84.3357 44.6368 84.0474 43.9322 83.497 42.8738C83.4472 42.7766 83.3642 42.7175 83.2479 42.6963C78.8212 41.8513 74.7384 40.6228 70.9996 39.0108C70.6034 38.8397 69.8727 38.7098 68.8076 38.621C64.1934 38.2408 59.6397 39.1745 55.1465 41.4224C52.1123 42.9393 49.237 44.8681 46.5207 47.209C46.4566 47.2639 46.4139 47.3125 46.3926 47.3547C46.3818 47.375 46.3917 47.3861 46.4214 47.3873C46.4511 47.3884 46.4997 47.3794 46.5628 47.3611C46.6258 47.3428 46.7012 47.3158 46.7822 47.2826C46.8631 47.2493 46.9469 47.211 47.026 47.1709C50.8455 45.2336 54.6293 43.6069 58.3776 42.2907C61.1176 41.3273 64.9217 40.8615 68.0282 41.6062C69.7007 42.0087 72.1775 43.365 73.3731 43.9259C76.2484 45.278 79.4925 46.5519 83.1056 47.7477C83.2195 47.7836 83.3049 47.7551 83.3618 47.6621C84.0759 46.5002 84.4092 45.6086 84.3617 44.9875ZM71.174 59.9039C74.9033 60.4712 78.7358 60.8546 81.8494 58.7948C82.3049 58.4927 82.2777 58.4514 81.7676 58.6712C79.4071 59.6874 76.8415 59.793 74.0706 58.9881C73.8926 58.9352 73.8962 58.8983 74.0812 58.8772C74.3351 58.8455 74.5356 58.8423 74.6826 58.8676C76.0586 59.1085 77.3634 59.081 78.597 58.7852C78.661 58.7705 78.6824 58.7409 78.661 58.6965V58.6934C78.6397 58.6511 78.6088 58.6321 78.5685 58.6363C77.8355 58.7293 77.1143 58.6881 76.405 58.5127C76.3504 58.5 76.3148 58.4789 76.2982 58.4493C76.284 58.4219 76.2828 58.3934 76.2946 58.3638C76.3065 58.3342 76.3255 58.3173 76.3516 58.3131L76.6754 58.2719C76.8391 58.2486 76.8545 58.1927 76.7217 58.1039L74.9211 56.8807C74.8795 56.852 74.8492 56.8123 74.8345 56.7674C74.8198 56.7224 74.8214 56.6744 74.8392 56.6303C75.5794 54.7163 75.9174 53.1666 75.0349 51.1765C74.8523 50.7625 74.7585 50.7772 74.7538 51.2209C74.7502 51.4712 74.8321 51.7057 74.6969 51.9878C74.481 52.442 74.3185 52.9089 74.2094 53.3885C73.9425 54.5642 73.5368 55.5466 72.8785 56.4877C72.8168 56.5744 72.7278 56.6092 72.6116 56.5923C65.5053 55.5434 58.7085 54.2346 52.2214 51.8103C51.4267 51.5146 51.3602 51.6128 52.0221 52.105C52.6793 52.5931 53.2901 53.0029 53.8548 53.3346C54.1584 53.5121 54.436 53.7793 54.6874 54.1364C54.8701 54.3941 55.1904 54.6487 55.6482 54.9001C57.3516 55.8381 58.6611 56.5247 59.5768 56.9599C59.712 57.0254 59.7037 57.0666 59.5519 57.0835C58.5176 57.2018 57.45 57.1363 56.3493 56.887C56.2069 56.8553 56.0515 56.8775 55.8831 56.9536C55.7811 57.0022 55.6779 57.0075 55.5735 56.9694C55.2793 56.8638 55.086 56.7972 54.9935 56.7698C54.5166 56.6346 54.4751 56.7022 54.8689 56.9726C56.4418 58.0543 58.2376 58.8983 60.2565 59.5046C64.4437 60.7595 68.4576 61.556 72.2984 61.894C73.4585 61.9954 76.0989 62.1792 76.985 61.7514C77.1083 61.6923 77.1 61.6637 76.9601 61.6659C74.6399 61.6954 72.3483 61.4197 70.0851 60.8387C70.0257 60.824 70.0056 60.7944 70.0246 60.75L70.0281 60.7469C70.0471 60.6983 70.0791 60.6782 70.1242 60.6866C71.8038 60.9655 73.3909 61.0711 74.8855 61.0035C75.768 60.9634 75.7727 60.8863 74.8997 60.7722C73.8132 60.6328 72.5653 60.3655 71.1562 59.9704C70.8027 59.8712 70.8086 59.849 71.174 59.9039ZM87.1267 75.4889C88.4718 74.8393 89.2227 74.8203 90.4575 74.852C90.5794 74.8552 90.7007 74.8349 90.8128 74.7925C90.925 74.7502 91.0253 74.6867 91.1067 74.6067C91.188 74.5267 91.2485 74.432 91.2839 74.3293C91.3193 74.2266 91.3287 74.1184 91.3115 74.0122C91.2901 73.877 91.1609 73.7555 90.9236 73.6478C89.9913 73.2326 88.3473 73.8125 87.4897 74.3164C86.555 74.8657 85.6428 75.5291 84.7532 76.3065C84.3784 76.6361 84.427 76.6974 84.8991 76.4903C86.1113 75.9558 86.8539 75.622 87.1267 75.4889Z" fill="url(#paint1_radial_25_7)"/>
<defs>
<radialGradient id="paint0_radial_25_7" cx="0" cy="0" r="1" gradientUnits="userSpaceOnUse" gradientTransform="translate(60 60) rotate(180) scale(40 50)">
<stop stop-color="#F5EC9B"/>
<stop offset="1" stop-color="#905E26"/>
</radialGradient>
<radialGradient id="paint1_radial_25_7" cx="0" cy="0" r="1" gradientUnits="userSpaceOnUse" gradientTransform="translate(68.8541 57.5743) rotate(180) scale(22.4658 19.0358)">
<stop stop-color="#F5EC9B"/>
<stop offset="1" stop-color="#905E26"/>
</radialGradient>
</defs>
</svg>
